<mxfile host="app.diagrams.net" agent="Mozilla/5.0 (Windows NT 10.0; Win64; x64) AppleWebKit/537.36 (KHTML, like Gecko) Chrome/140.0.0.0 Safari/537.36" version="28.2.0">
  <diagram name="Página-1" id="MDDiMToND-RasByc-Ff1">
    <mxGraphModel dx="1429" dy="1978" grid="1" gridSize="10" guides="1" tooltips="1" connect="1" arrows="1" fold="1" page="1" pageScale="1" pageWidth="827" pageHeight="1169" math="0" shadow="0">
      <root>
        <mxCell id="0" />
        <mxCell id="1" parent="0" />
        <mxCell id="DpBCyXcLCWUU_JkgOVKi-2" value="Atendente" style="shape=umlActor;verticalLabelPosition=bottom;verticalAlign=top;html=1;outlineConnect=0;fontFamily=Helvetica;fontSize=13;fontStyle=1" parent="1" vertex="1">
          <mxGeometry x="280" y="-505" width="45" height="90" as="geometry" />
        </mxCell>
        <mxCell id="DpBCyXcLCWUU_JkgOVKi-5" value="Mecânico" style="shape=umlActor;verticalLabelPosition=bottom;verticalAlign=top;html=1;outlineConnect=0;fontFamily=Helvetica;fontSize=13;fontStyle=1" parent="1" vertex="1">
          <mxGeometry x="280" y="80" width="45" height="90" as="geometry" />
        </mxCell>
        <mxCell id="DpBCyXcLCWUU_JkgOVKi-7" value="" style="endArrow=none;html=1;rounded=0;fontFamily=Helvetica;entryX=0.088;entryY=0.817;entryDx=0;entryDy=0;entryPerimeter=0;endFill=0;" parent="1" target="DpBCyXcLCWUU_JkgOVKi-8" edge="1">
          <mxGeometry width="50" height="50" relative="1" as="geometry">
            <mxPoint x="340" y="-480" as="sourcePoint" />
            <mxPoint x="560" y="-660" as="targetPoint" />
          </mxGeometry>
        </mxCell>
        <mxCell id="DpBCyXcLCWUU_JkgOVKi-10" value="" style="endArrow=none;html=1;rounded=0;fontFamily=Helvetica;entryX=0.006;entryY=0.65;entryDx=0;entryDy=0;entryPerimeter=0;endFill=0;" parent="1" target="DpBCyXcLCWUU_JkgOVKi-11" edge="1">
          <mxGeometry width="50" height="50" relative="1" as="geometry">
            <mxPoint x="340" y="-470" as="sourcePoint" />
            <mxPoint x="560" y="-561.5" as="targetPoint" />
          </mxGeometry>
        </mxCell>
        <mxCell id="DpBCyXcLCWUU_JkgOVKi-13" value="" style="endArrow=none;html=1;rounded=0;fontFamily=Helvetica;endFill=0;" parent="1" edge="1">
          <mxGeometry width="50" height="50" relative="1" as="geometry">
            <mxPoint x="340" y="-460" as="sourcePoint" />
            <mxPoint x="557" y="-459" as="targetPoint" />
          </mxGeometry>
        </mxCell>
        <mxCell id="DpBCyXcLCWUU_JkgOVKi-19" value="" style="endArrow=none;html=1;rounded=0;fontFamily=Helvetica;endFill=0;" parent="1" edge="1">
          <mxGeometry width="50" height="50" relative="1" as="geometry">
            <mxPoint x="350" y="130" as="sourcePoint" />
            <mxPoint x="561" y="70" as="targetPoint" />
          </mxGeometry>
        </mxCell>
        <mxCell id="DpBCyXcLCWUU_JkgOVKi-22" value="" style="endArrow=none;html=1;rounded=0;fontFamily=Helvetica;endFill=0;" parent="1" edge="1">
          <mxGeometry width="50" height="50" relative="1" as="geometry">
            <mxPoint x="350" y="140" as="sourcePoint" />
            <mxPoint x="554" y="228" as="targetPoint" />
          </mxGeometry>
        </mxCell>
        <mxCell id="DpBCyXcLCWUU_JkgOVKi-25" value="" style="endArrow=classic;html=1;rounded=0;fontFamily=Helvetica;endFill=0;endSize=8;dashed=1;" parent="1" edge="1">
          <mxGeometry width="50" height="50" relative="1" as="geometry">
            <mxPoint x="702" y="53" as="sourcePoint" />
            <mxPoint x="817" y="52" as="targetPoint" />
          </mxGeometry>
        </mxCell>
        <mxCell id="DpBCyXcLCWUU_JkgOVKi-26" value="&amp;lt;&amp;lt;extend&amp;gt;&amp;gt;" style="text;html=1;align=center;verticalAlign=middle;resizable=0;points=[];autosize=1;strokeColor=none;fillColor=none;fontFamily=Helvetica;" parent="1" vertex="1">
          <mxGeometry x="711" y="29" width="90" height="30" as="geometry" />
        </mxCell>
        <mxCell id="DpBCyXcLCWUU_JkgOVKi-29" value="" style="endArrow=none;html=1;rounded=0;fontFamily=Helvetica;endFill=0;" parent="1" edge="1">
          <mxGeometry width="50" height="50" relative="1" as="geometry">
            <mxPoint x="340" y="-450" as="sourcePoint" />
            <mxPoint x="560" y="-370" as="targetPoint" />
          </mxGeometry>
        </mxCell>
        <mxCell id="DpBCyXcLCWUU_JkgOVKi-32" value="" style="endArrow=none;html=1;rounded=0;fontFamily=Helvetica;endFill=0;" parent="1" edge="1">
          <mxGeometry width="50" height="50" relative="1" as="geometry">
            <mxPoint x="340" y="-440" as="sourcePoint" />
            <mxPoint x="563" y="-278" as="targetPoint" />
          </mxGeometry>
        </mxCell>
        <mxCell id="DpBCyXcLCWUU_JkgOVKi-46" value="" style="endArrow=none;html=1;rounded=0;fontFamily=Helvetica;endFill=0;" parent="1" edge="1">
          <mxGeometry width="50" height="50" relative="1" as="geometry">
            <mxPoint x="340" y="-430" as="sourcePoint" />
            <mxPoint x="565" y="-180" as="targetPoint" />
          </mxGeometry>
        </mxCell>
        <mxCell id="DpBCyXcLCWUU_JkgOVKi-52" value="&lt;b&gt;Cliente&lt;/b&gt;" style="shape=umlActor;verticalLabelPosition=bottom;verticalAlign=top;html=1;outlineConnect=0;fontFamily=Helvetica;fontSize=13;" parent="1" vertex="1">
          <mxGeometry x="1246" y="-505" width="45" height="90" as="geometry" />
        </mxCell>
        <mxCell id="DpBCyXcLCWUU_JkgOVKi-56" value="" style="endArrow=none;html=1;rounded=0;fontFamily=Helvetica;endFill=0;" parent="1" edge="1">
          <mxGeometry width="50" height="50" relative="1" as="geometry">
            <mxPoint x="1236" y="-456" as="sourcePoint" />
            <mxPoint x="1048" y="-542" as="targetPoint" />
          </mxGeometry>
        </mxCell>
        <mxCell id="DpBCyXcLCWUU_JkgOVKi-62" value="&amp;lt;&amp;lt;include&amp;gt;&amp;gt;" style="text;whiteSpace=wrap;html=1;" parent="1" vertex="1">
          <mxGeometry x="796" y="-479" width="80" height="30" as="geometry" />
        </mxCell>
        <mxCell id="DpBCyXcLCWUU_JkgOVKi-69" value="" style="endArrow=none;html=1;rounded=0;fontFamily=Helvetica;endFill=0;entryX=0.968;entryY=0.278;entryDx=0;entryDy=0;entryPerimeter=0;" parent="1" target="DpBCyXcLCWUU_JkgOVKi-57" edge="1">
          <mxGeometry width="50" height="50" relative="1" as="geometry">
            <mxPoint x="1236" y="-450" as="sourcePoint" />
            <mxPoint x="1045" y="-378" as="targetPoint" />
          </mxGeometry>
        </mxCell>
        <mxCell id="DpBCyXcLCWUU_JkgOVKi-70" value="" style="group" parent="1" vertex="1" connectable="0">
          <mxGeometry x="910" y="-600" width="140" height="85" as="geometry" />
        </mxCell>
        <mxCell id="DpBCyXcLCWUU_JkgOVKi-54" value="" style="ellipse;whiteSpace=wrap;html=1;fontFamily=Helvetica;" parent="DpBCyXcLCWUU_JkgOVKi-70" vertex="1">
          <mxGeometry width="140" height="85" as="geometry" />
        </mxCell>
        <mxCell id="DpBCyXcLCWUU_JkgOVKi-55" value="Aprovar orçamento" style="text;html=1;align=center;verticalAlign=middle;resizable=0;points=[];autosize=1;strokeColor=none;fillColor=none;fontFamily=Helvetica;" parent="DpBCyXcLCWUU_JkgOVKi-70" vertex="1">
          <mxGeometry x="5" y="27.5" width="130" height="30" as="geometry" />
        </mxCell>
        <mxCell id="DpBCyXcLCWUU_JkgOVKi-71" value="" style="group" parent="1" vertex="1" connectable="0">
          <mxGeometry x="910" y="-400" width="140" height="85" as="geometry" />
        </mxCell>
        <mxCell id="DpBCyXcLCWUU_JkgOVKi-57" value="" style="ellipse;whiteSpace=wrap;html=1;fontFamily=Helvetica;" parent="DpBCyXcLCWUU_JkgOVKi-71" vertex="1">
          <mxGeometry width="140" height="85" as="geometry" />
        </mxCell>
        <mxCell id="DpBCyXcLCWUU_JkgOVKi-58" value="Assinar recebimento" style="text;html=1;align=center;verticalAlign=middle;resizable=0;points=[];autosize=1;strokeColor=none;fillColor=none;fontFamily=Helvetica;" parent="DpBCyXcLCWUU_JkgOVKi-71" vertex="1">
          <mxGeometry x="5" y="27.5" width="130" height="30" as="geometry" />
        </mxCell>
        <mxCell id="maojFKMcMMz67fVIA9Oq-1" value="" style="group" parent="1" vertex="1" connectable="0">
          <mxGeometry x="560" y="-700" width="140" height="85" as="geometry" />
        </mxCell>
        <mxCell id="DpBCyXcLCWUU_JkgOVKi-8" value="" style="ellipse;whiteSpace=wrap;html=1;fontFamily=Helvetica;" parent="maojFKMcMMz67fVIA9Oq-1" vertex="1">
          <mxGeometry width="140" height="85" as="geometry" />
        </mxCell>
        <mxCell id="DpBCyXcLCWUU_JkgOVKi-9" value="Cadastrar clientes&lt;div&gt;e veículos&lt;/div&gt;" style="text;html=1;align=center;verticalAlign=middle;resizable=0;points=[];autosize=1;strokeColor=none;fillColor=none;fontFamily=Helvetica;" parent="maojFKMcMMz67fVIA9Oq-1" vertex="1">
          <mxGeometry x="10" y="22.5" width="120" height="40" as="geometry" />
        </mxCell>
        <mxCell id="maojFKMcMMz67fVIA9Oq-2" value="" style="group" parent="1" vertex="1" connectable="0">
          <mxGeometry x="560" y="-600" width="140" height="85" as="geometry" />
        </mxCell>
        <mxCell id="DpBCyXcLCWUU_JkgOVKi-11" value="" style="ellipse;whiteSpace=wrap;html=1;fontFamily=Helvetica;" parent="maojFKMcMMz67fVIA9Oq-2" vertex="1">
          <mxGeometry width="140" height="85" as="geometry" />
        </mxCell>
        <mxCell id="DpBCyXcLCWUU_JkgOVKi-12" value="Gerar OS provisória" style="text;html=1;align=center;verticalAlign=middle;resizable=0;points=[];autosize=1;strokeColor=none;fillColor=none;fontFamily=Helvetica;" parent="maojFKMcMMz67fVIA9Oq-2" vertex="1">
          <mxGeometry x="5" y="27.5" width="130" height="30" as="geometry" />
        </mxCell>
        <mxCell id="maojFKMcMMz67fVIA9Oq-3" value="" style="group" parent="1" vertex="1" connectable="0">
          <mxGeometry x="560" y="-500" width="140" height="85" as="geometry" />
        </mxCell>
        <mxCell id="DpBCyXcLCWUU_JkgOVKi-14" value="" style="ellipse;whiteSpace=wrap;html=1;fontFamily=Helvetica;" parent="maojFKMcMMz67fVIA9Oq-3" vertex="1">
          <mxGeometry width="140" height="85" as="geometry" />
        </mxCell>
        <mxCell id="DpBCyXcLCWUU_JkgOVKi-15" value="Efetivar OS" style="text;html=1;align=center;verticalAlign=middle;resizable=0;points=[];autosize=1;strokeColor=none;fillColor=none;fontFamily=Helvetica;" parent="maojFKMcMMz67fVIA9Oq-3" vertex="1">
          <mxGeometry x="30" y="27.5" width="80" height="30" as="geometry" />
        </mxCell>
        <mxCell id="maojFKMcMMz67fVIA9Oq-4" value="" style="group" parent="1" vertex="1" connectable="0">
          <mxGeometry x="560" y="-400" width="140" height="85" as="geometry" />
        </mxCell>
        <mxCell id="DpBCyXcLCWUU_JkgOVKi-30" value="" style="ellipse;whiteSpace=wrap;html=1;fontFamily=Helvetica;" parent="maojFKMcMMz67fVIA9Oq-4" vertex="1">
          <mxGeometry width="140" height="85" as="geometry" />
        </mxCell>
        <mxCell id="DpBCyXcLCWUU_JkgOVKi-31" value="Consultar OS" style="text;html=1;align=center;verticalAlign=middle;resizable=0;points=[];autosize=1;strokeColor=none;fillColor=none;fontFamily=Helvetica;" parent="maojFKMcMMz67fVIA9Oq-4" vertex="1">
          <mxGeometry x="20" y="27.5" width="100" height="30" as="geometry" />
        </mxCell>
        <mxCell id="maojFKMcMMz67fVIA9Oq-5" value="" style="group" parent="1" vertex="1" connectable="0">
          <mxGeometry x="560" y="-300" width="140" height="85" as="geometry" />
        </mxCell>
        <mxCell id="DpBCyXcLCWUU_JkgOVKi-33" value="" style="ellipse;whiteSpace=wrap;html=1;fontFamily=Helvetica;" parent="maojFKMcMMz67fVIA9Oq-5" vertex="1">
          <mxGeometry width="140" height="85" as="geometry" />
        </mxCell>
        <mxCell id="DpBCyXcLCWUU_JkgOVKi-34" value="Calcular valor final e&amp;nbsp;&lt;div&gt;registrar pagamento&lt;/div&gt;" style="text;html=1;align=center;verticalAlign=middle;resizable=0;points=[];autosize=1;strokeColor=none;fillColor=none;fontFamily=Helvetica;" parent="maojFKMcMMz67fVIA9Oq-5" vertex="1">
          <mxGeometry y="22.5" width="140" height="40" as="geometry" />
        </mxCell>
        <mxCell id="maojFKMcMMz67fVIA9Oq-6" value="" style="group" parent="1" vertex="1" connectable="0">
          <mxGeometry x="560" y="-200" width="140" height="85" as="geometry" />
        </mxCell>
        <mxCell id="DpBCyXcLCWUU_JkgOVKi-47" value="" style="ellipse;whiteSpace=wrap;html=1;fontFamily=Helvetica;" parent="maojFKMcMMz67fVIA9Oq-6" vertex="1">
          <mxGeometry width="140" height="85" as="geometry" />
        </mxCell>
        <mxCell id="DpBCyXcLCWUU_JkgOVKi-48" value="Gerenciar estoque" style="text;html=1;align=center;verticalAlign=middle;resizable=0;points=[];autosize=1;strokeColor=none;fillColor=none;fontFamily=Helvetica;" parent="maojFKMcMMz67fVIA9Oq-6" vertex="1">
          <mxGeometry x="10" y="27.5" width="120" height="30" as="geometry" />
        </mxCell>
        <mxCell id="maojFKMcMMz67fVIA9Oq-7" value="" style="endArrow=none;html=1;rounded=0;fontFamily=Helvetica;endFill=0;endSize=8;dashed=1;" parent="1" edge="1">
          <mxGeometry width="50" height="50" relative="1" as="geometry">
            <mxPoint x="702" y="-457" as="sourcePoint" />
            <mxPoint x="980" y="-457" as="targetPoint" />
          </mxGeometry>
        </mxCell>
        <mxCell id="maojFKMcMMz67fVIA9Oq-8" value="&amp;lt;&amp;lt;include&amp;gt;&amp;gt;" style="text;whiteSpace=wrap;html=1;" parent="1" vertex="1">
          <mxGeometry x="796" y="-278" width="80" height="30" as="geometry" />
        </mxCell>
        <mxCell id="maojFKMcMMz67fVIA9Oq-9" value="" style="endArrow=none;html=1;rounded=0;fontFamily=Helvetica;dashed=1;endFill=0;jumpSize=6;endSize=8;" parent="1" edge="1">
          <mxGeometry width="50" height="50" relative="1" as="geometry">
            <mxPoint x="704" y="-255" as="sourcePoint" />
            <mxPoint x="980" y="-255" as="targetPoint" />
          </mxGeometry>
        </mxCell>
        <mxCell id="maojFKMcMMz67fVIA9Oq-10" value="" style="group" parent="1" vertex="1" connectable="0">
          <mxGeometry x="550" y="200" width="150" height="85" as="geometry" />
        </mxCell>
        <mxCell id="DpBCyXcLCWUU_JkgOVKi-23" value="" style="ellipse;whiteSpace=wrap;html=1;fontFamily=Helvetica;" parent="maojFKMcMMz67fVIA9Oq-10" vertex="1">
          <mxGeometry x="5" width="140" height="85" as="geometry" />
        </mxCell>
        <mxCell id="DpBCyXcLCWUU_JkgOVKi-24" value="Gerar laudo técnico final" style="text;html=1;align=center;verticalAlign=middle;resizable=0;points=[];autosize=1;strokeColor=none;fillColor=none;fontFamily=Helvetica;" parent="maojFKMcMMz67fVIA9Oq-10" vertex="1">
          <mxGeometry y="27.5" width="150" height="30" as="geometry" />
        </mxCell>
        <mxCell id="maojFKMcMMz67fVIA9Oq-11" value="" style="group" parent="1" vertex="1" connectable="0">
          <mxGeometry x="555" y="10" width="150" height="85" as="geometry" />
        </mxCell>
        <mxCell id="DpBCyXcLCWUU_JkgOVKi-20" value="" style="ellipse;whiteSpace=wrap;html=1;fontFamily=Helvetica;" parent="maojFKMcMMz67fVIA9Oq-11" vertex="1">
          <mxGeometry x="5" width="140" height="85" as="geometry" />
        </mxCell>
        <mxCell id="DpBCyXcLCWUU_JkgOVKi-21" value="Acompanhar e atualizar&lt;br&gt;OS" style="text;html=1;align=center;verticalAlign=middle;resizable=0;points=[];autosize=1;strokeColor=none;fillColor=none;fontFamily=Helvetica;" parent="maojFKMcMMz67fVIA9Oq-11" vertex="1">
          <mxGeometry y="22.5" width="150" height="40" as="geometry" />
        </mxCell>
        <mxCell id="maojFKMcMMz67fVIA9Oq-12" value="" style="group" parent="1" vertex="1" connectable="0">
          <mxGeometry x="820" y="10" width="140" height="85" as="geometry" />
        </mxCell>
        <mxCell id="DpBCyXcLCWUU_JkgOVKi-27" value="" style="ellipse;whiteSpace=wrap;html=1;fontFamily=Helvetica;" parent="maojFKMcMMz67fVIA9Oq-12" vertex="1">
          <mxGeometry width="140" height="85" as="geometry" />
        </mxCell>
        <mxCell id="DpBCyXcLCWUU_JkgOVKi-28" value="Registrar problema&lt;div&gt;crítico&lt;/div&gt;" style="text;html=1;align=center;verticalAlign=middle;resizable=0;points=[];autosize=1;strokeColor=none;fillColor=none;fontFamily=Helvetica;" parent="maojFKMcMMz67fVIA9Oq-12" vertex="1">
          <mxGeometry x="5" y="22.5" width="130" height="40" as="geometry" />
        </mxCell>
        <mxCell id="maojFKMcMMz67fVIA9Oq-15" value="" style="endArrow=none;html=1;rounded=0;dashed=1;" parent="1" edge="1">
          <mxGeometry width="50" height="50" relative="1" as="geometry">
            <mxPoint x="704" y="-240" as="sourcePoint" />
            <mxPoint x="980" y="-240" as="targetPoint" />
          </mxGeometry>
        </mxCell>
        <mxCell id="maojFKMcMMz67fVIA9Oq-18" value="" style="endArrow=none;html=1;rounded=0;dashed=1;" parent="1" edge="1">
          <mxGeometry width="50" height="50" relative="1" as="geometry">
            <mxPoint x="979.66" y="245" as="sourcePoint" />
            <mxPoint x="979.66" y="-240" as="targetPoint" />
          </mxGeometry>
        </mxCell>
        <mxCell id="maojFKMcMMz67fVIA9Oq-19" value="" style="endArrow=classic;html=1;rounded=0;fontFamily=Helvetica;dashed=1;endFill=0;strokeWidth=1;endSize=8;" parent="1" edge="1">
          <mxGeometry width="50" height="50" relative="1" as="geometry">
            <mxPoint x="980" y="245" as="sourcePoint" />
            <mxPoint x="698" y="245" as="targetPoint" />
          </mxGeometry>
        </mxCell>
        <mxCell id="maojFKMcMMz67fVIA9Oq-20" value="&amp;lt;&amp;lt;include&amp;gt;&amp;gt;" style="text;whiteSpace=wrap;html=1;" parent="1" vertex="1">
          <mxGeometry x="796" y="-245" width="80" height="30" as="geometry" />
        </mxCell>
        <mxCell id="maojFKMcMMz67fVIA9Oq-22" value="" style="endArrow=classic;html=1;rounded=0;fontFamily=Helvetica;dashed=1;endFill=0;jumpSize=6;endSize=8;" parent="1" edge="1">
          <mxGeometry width="50" height="50" relative="1" as="geometry">
            <mxPoint x="980" y="-254" as="sourcePoint" />
            <mxPoint x="980" y="-312" as="targetPoint" />
          </mxGeometry>
        </mxCell>
        <mxCell id="irbouY5baRkoPE5xEjBk-1" value="" style="endArrow=classic;html=1;rounded=0;fontFamily=Helvetica;dashed=1;endFill=0;jumpSize=6;endSize=8;" parent="1" edge="1">
          <mxGeometry width="50" height="50" relative="1" as="geometry">
            <mxPoint x="980" y="-458" as="sourcePoint" />
            <mxPoint x="980" y="-513" as="targetPoint" />
          </mxGeometry>
        </mxCell>
      </root>
    </mxGraphModel>
  </diagram>
</mxfile>
